<svg width="21" height="20" viewBox="0 0 21 20" fill="none" xmlns="http://www.w3.org/2000/svg">
<path fill-rule="evenodd" clip-rule="evenodd" d="M6.13219 0.833985H12.3677C13.0385 0.833974 13.5921 0.833965 14.0431 0.870813C14.5115 0.909084 14.9421 0.991221 15.3466 1.1973C15.9738 1.51687 16.4837 2.02681 16.8033 2.65402C17.0094 3.05846 17.0915 3.48905 17.1298 3.95746C17.1666 4.40846 17.1666 4.96208 17.1666 5.63288V8.34867C17.2226 8.35163 17.2768 8.35519 17.3291 8.35946C17.6586 8.38638 17.9863 8.44581 18.3016 8.60647C18.772 8.84615 19.1544 9.22861 19.3941 9.69901C19.5548 10.0143 19.6142 10.342 19.6411 10.6715C19.6666 10.9836 19.6666 11.3626 19.6666 11.8018V14.1225C19.6666 14.4881 19.6666 14.8035 19.6488 15.0645C19.6301 15.3394 19.5888 15.6143 19.4763 15.8859C19.2226 16.4985 18.7359 16.9852 18.1233 17.2389C17.8517 17.3514 17.5768 17.3927 17.3019 17.4114C17.2583 17.4144 17.2132 17.4169 17.1666 17.4189V18.334C17.1666 18.6442 16.9943 18.9288 16.7193 19.0725C16.4443 19.2162 16.1123 19.1953 15.8576 19.0182L14.0439 17.7573C13.7646 17.5631 13.708 17.5276 13.6546 17.5034C13.5931 17.4756 13.5283 17.4553 13.4619 17.443C13.4042 17.4324 13.3376 17.4292 12.9974 17.4292H11.4678C11.0285 17.4292 10.6496 17.4293 10.3374 17.4037C10.008 17.3768 9.68028 17.3174 9.36497 17.1567C8.89456 16.9171 8.51211 16.5346 8.27243 16.0642C8.11176 15.7489 8.05234 15.4212 8.02542 15.0917C8.01163 14.923 8.0053 14.7346 8.00239 14.5278L6.84162 15.7031C6.68199 15.8648 6.52543 16.0233 6.38822 16.1397C6.26635 16.2431 6.00843 16.4517 5.64973 16.4815C5.24988 16.5148 4.85839 16.354 4.59725 16.0494C4.36298 15.7761 4.3261 15.4464 4.31202 15.2873C4.29617 15.1081 4.2962 14.8852 4.29624 14.658L4.29624 13.3432C4.28022 13.3299 4.24308 13.3075 4.1835 13.2988C2.72632 13.0853 1.58192 11.9409 1.36847 10.4838C1.33307 10.2421 1.33315 9.96938 1.33326 9.60136C1.33327 9.58045 1.33328 9.55923 1.33328 9.53769L1.33328 5.6329C1.33327 4.96209 1.33326 4.40846 1.3701 3.95746C1.40838 3.48905 1.49051 3.05846 1.69659 2.65402C2.01617 2.02681 2.5261 1.51687 3.15331 1.1973C3.55775 0.991221 3.98834 0.909084 4.45676 0.870813C4.90775 0.833965 5.46139 0.833974 6.13219 0.833985ZM4.42506 11.6497C5.16518 11.7581 5.96291 12.3458 5.96291 13.327V14.221L7.99994 12.1585L7.99994 11.8019C7.99993 11.3626 7.99992 10.9836 8.02542 10.6715C8.05234 10.342 8.11176 10.0143 8.27243 9.69901C8.51211 9.2286 8.89456 8.84615 9.36497 8.60647C9.68028 8.44581 10.008 8.38638 10.3374 8.35946C10.6496 8.33396 11.0285 8.33397 11.4678 8.33398L15.4999 8.33399V5.66732C15.4999 4.9535 15.4993 4.46826 15.4687 4.09318C15.4388 3.72784 15.3847 3.541 15.3183 3.41067C15.1585 3.09706 14.9035 2.8421 14.5899 2.68231C14.4596 2.6159 14.2728 2.56179 13.9074 2.53194C13.5323 2.5013 13.0471 2.50065 12.3333 2.50065H6.16661C5.45279 2.50065 4.96755 2.5013 4.59248 2.53194C4.22713 2.56179 4.04029 2.6159 3.90996 2.68231C3.59636 2.8421 3.34139 3.09706 3.1816 3.41067C3.11519 3.541 3.06109 3.72784 3.03124 4.09318C3.00059 4.46826 2.99994 4.9535 2.99994 5.66732V9.53769C2.99994 9.99721 3.00216 10.1372 3.01754 10.2422C3.12426 10.9708 3.69647 11.543 4.42506 11.6497ZM9.66661 12.5001C9.66661 12.5005 9.66661 12.5009 9.66661 12.5012V13.9292C9.66661 14.4097 9.66726 14.7199 9.68655 14.956C9.70505 15.1824 9.73644 15.2663 9.75744 15.3075C9.83733 15.4644 9.96482 15.5918 10.1216 15.6717C10.1628 15.6927 10.2468 15.7241 10.4731 15.7426C10.7093 15.7619 11.0195 15.7626 11.4999 15.7626H12.9974C13.015 15.7626 13.0325 15.7625 13.0499 15.7625C13.3088 15.7623 13.5373 15.7622 13.764 15.804C13.9634 15.8407 14.1576 15.9016 14.3422 15.9852C14.5522 16.0803 14.7397 16.2109 14.9522 16.3588C14.9665 16.3688 14.9808 16.3788 14.9953 16.3888L15.4999 16.7397V16.5959C15.4999 16.1357 15.873 15.7626 16.3333 15.7626C16.733 15.7626 16.991 15.7621 17.1885 15.7486C17.3785 15.7357 17.4508 15.7135 17.4855 15.6991C17.6897 15.6145 17.8519 15.4523 17.9365 15.2481C17.9509 15.2134 17.9731 15.1411 17.986 14.9511C17.9995 14.7536 17.9999 14.4956 17.9999 14.0959V11.834C17.9999 11.3535 17.9993 11.0433 17.98 10.8072C17.9615 10.5808 17.9301 10.4969 17.9091 10.4557C17.8292 10.2989 17.7017 10.1714 17.5449 10.0915C17.5037 10.0705 17.4198 10.0391 17.1934 10.0206C16.9573 10.0013 16.6471 10.0007 16.1666 10.0007H11.4999C11.0195 10.0007 10.7093 10.0013 10.4731 10.0206C10.2468 10.0391 10.1628 10.0705 10.1216 10.0915C9.96482 10.1714 9.83733 10.2989 9.75744 10.4557C9.73644 10.4969 9.70505 10.5808 9.68655 10.8072C9.66726 11.0433 9.66661 11.3535 9.66661 11.834V12.5001Z" fill="white"/>
</svg>
