<svg width="94" height="16" viewBox="0 0 94 16" fill="none" xmlns="http://www.w3.org/2000/svg">
<g clip-path="url(#clip0_1621_9217)">
<mask id="mask0_1621_9217" style="mask-type:luminance" maskUnits="userSpaceOnUse" x="0" y="0" width="94" height="16">
<path d="M93.5 0H0.5V16H93.5V0Z" fill="white"/>
</mask>
<g mask="url(#mask0_1621_9217)">
<path d="M51.5605 11.3067H53.7937C53.6714 12.1905 53.2125 12.8915 52.4782 13.4095C51.744 13.9581 50.8263 14.2019 49.6943 14.2019C48.3178 14.2019 47.247 13.8057 46.4516 12.9828C45.6562 12.16 45.2891 11.0324 45.2891 9.6C45.2891 8.16762 45.6868 7.04 46.4516 6.18667C47.2164 5.33333 48.2871 4.90667 49.6026 4.90667C50.8875 4.90667 51.9276 5.30286 52.6924 6.12572C53.4572 6.94857 53.8549 8.01524 53.8549 9.3867V10.1181H47.6753V10.2705C47.6753 10.9105 47.8589 11.4285 48.226 11.8248C48.5931 12.2209 49.1131 12.4343 49.725 12.4343C50.1839 12.4343 50.551 12.3428 50.8875 12.1295C51.224 11.9162 51.4381 11.6419 51.5605 11.3067ZM49.6332 6.73524C49.1131 6.73524 48.6542 6.91809 48.3178 7.28381C47.9506 7.64952 47.7671 8.10667 47.7059 8.65523H51.4993C51.4687 8.07619 51.2852 7.61905 50.9486 7.25333C50.6121 6.91809 50.1839 6.73524 49.6332 6.73524Z" fill="url(#paint0_linear_1621_9217)"/>
<path d="M61.0409 11.3067H63.2741C63.1518 12.1905 62.6929 12.8915 61.9587 13.4095C61.2244 13.9581 60.3066 14.2019 59.1748 14.2019C57.7981 14.2019 56.7274 13.8057 55.932 12.9828C55.1366 12.16 54.7695 11.0324 54.7695 9.6C54.7695 8.16762 55.1672 7.04 55.932 6.18667C56.6968 5.33333 57.7676 4.90667 59.083 4.90667C60.3679 4.90667 61.408 5.30286 62.1728 6.12572C62.9376 6.94857 63.3353 8.01524 63.3353 9.3867V10.1181H57.1557V10.2705C57.1557 10.9105 57.3393 11.4285 57.7063 11.8248C58.0734 12.2209 58.5936 12.4343 59.2054 12.4343C59.6643 12.4343 60.0314 12.3428 60.3679 12.1295C60.7044 11.9162 60.9186 11.6419 61.0409 11.3067ZM59.1441 6.73524C58.6241 6.73524 58.1652 6.91809 57.8287 7.28381C57.4616 7.64952 57.278 8.10667 57.2169 8.65523H61.0103C60.9797 8.07619 60.7962 7.61905 60.4597 7.25333C60.1231 6.91809 59.6643 6.73524 59.1441 6.73524Z" fill="url(#paint1_linear_1621_9217)"/>
<path d="M81.662 11.3067H83.8952C83.7729 12.1905 83.314 12.8915 82.5798 13.4095C81.8456 13.9581 80.9278 14.2019 79.7959 14.2019C78.4192 14.2019 77.3485 13.8057 76.5531 12.9828C75.7577 12.16 75.3906 11.0324 75.3906 9.6C75.3906 8.16762 75.7884 7.04 76.5531 6.18667C77.318 5.33333 78.3887 4.90667 79.7041 4.90667C80.989 4.90667 82.0291 5.30286 82.7939 6.12572C83.5588 6.94857 83.9564 8.01524 83.9564 9.3867V10.1181H77.7768V10.2705C77.7768 10.9105 77.9603 11.4285 78.3275 11.8248C78.6946 12.2209 79.2146 12.4343 79.8265 12.4343C80.2854 12.4343 80.6525 12.3428 80.989 12.1295C81.3561 11.9162 81.5702 11.6419 81.662 11.3067ZM79.7653 6.73524C79.2452 6.73524 78.7864 6.91809 78.4499 7.28381C78.0827 7.64952 77.8992 8.10667 77.838 8.65523H81.6314C81.6009 8.07619 81.4173 7.61905 81.0808 7.25333C80.7442 6.91809 80.316 6.73524 79.7653 6.73524Z" fill="url(#paint2_linear_1621_9217)"/>
<path d="M91.1776 11.3067H93.4105C93.2882 12.1905 92.8292 12.8915 92.0956 13.4095C91.3611 13.9581 90.4431 14.2019 89.3116 14.2019C87.9347 14.2019 86.8643 13.8057 86.0688 12.9828C85.2733 12.16 84.9062 11.0324 84.9062 9.6C84.9062 8.16762 85.304 7.04 86.0688 6.18667C86.8333 5.33333 87.9046 4.90667 89.2195 4.90667C90.5042 4.90667 91.5445 5.30286 92.3091 6.12572C93.0747 6.94857 93.4716 8.01524 93.4716 9.3867V10.1181H87.2923V10.2705C87.2923 10.9105 87.4757 11.4285 87.8434 11.8248C88.2102 12.2209 88.7304 12.4343 89.3418 12.4343C89.8007 12.4343 90.1684 12.3428 90.5043 12.1295C90.8409 11.9162 91.0554 11.6419 91.1776 11.3067ZM89.2505 6.73524C88.7304 6.73524 88.2714 6.91809 87.9347 7.28381C87.5679 7.64952 87.3844 8.10667 87.3233 8.65523H91.1165C91.0855 8.07619 90.9021 7.61905 90.5654 7.25333C90.2296 6.91809 89.8007 6.73524 89.2505 6.73524Z" fill="url(#paint3_linear_1621_9217)"/>
<path d="M70.1883 14.1715H64.7734V2.0419H70.0659C71.1978 2.0419 72.1155 2.31619 72.7886 2.86476C73.4616 3.41333 73.7981 4.14476 73.7981 5.08952C73.7981 5.76 73.584 6.33905 73.1557 6.82667C72.7274 7.31429 72.1768 7.61905 71.5343 7.71048V7.77143C72.3603 7.83238 73.0639 8.13714 73.584 8.68569C74.1347 9.23431 74.41 9.90477 74.41 10.6972C74.41 11.7639 74.0429 12.6172 73.278 13.2267C72.5438 13.8667 71.5037 14.1715 70.1883 14.1715ZM67.3432 3.93143V7.10095H69.1787C69.8518 7.10095 70.4024 6.94857 70.7695 6.67429C71.1366 6.4 71.3201 6.00381 71.3201 5.48572C71.3201 4.99809 71.1672 4.63238 70.8307 4.35809C70.4941 4.08381 70.0353 3.9619 69.454 3.9619H67.3432V3.93143ZM67.3432 12.2819H69.5458C70.2801 12.2819 70.8307 12.1295 71.2284 11.8248C71.6261 11.52 71.8097 11.0628 71.8097 10.4839C71.8097 9.90477 71.6261 9.47808 71.2284 9.17331C70.8307 8.86854 70.2494 8.71615 69.4847 8.71615H67.3432V12.2819Z" fill="url(#paint4_linear_1621_9217)"/>
<path d="M42.2891 4.63238C43.0232 5.51619 43.6045 6.55238 43.9716 7.68L45.4706 2.0419H42.8703L42.2891 4.63238Z" fill="url(#paint5_linear_1621_9217)"/>
<path d="M43.9733 7.64952C43.6062 6.5219 43.025 5.48571 42.2908 4.6019L42.8721 2.01142L40.9753 10.6972H40.8835L38.6197 2.01142H36.4783L34.2145 10.6972H34.1533L32.2565 2.01142H29.6562L32.8378 14.0191H35.224L37.5185 5.82095H37.5796L39.874 14.0191H42.2602L43.9733 7.64952Z" fill="url(#paint6_linear_1621_9217)"/>
<path d="M19.2539 5.12C19.2539 4.69333 19.4681 4.29713 19.8352 4.0838L23.1392 2.01142C23.9651 1.49333 25.0358 2.10285 25.0358 3.04761V12.9524C25.0358 13.9276 23.9651 14.5067 23.1392 13.9885L19.8352 11.9467C19.4681 11.7333 19.2539 11.3372 19.2539 10.9105V5.12Z" fill="url(#paint7_linear_1621_9217)"/>
<path d="M0.5 3.65715C0.5 1.64572 2.15197 0 4.17105 0H14.45C16.469 0 18.1211 1.64572 18.1211 3.65715V12.3124C18.1211 14.3239 16.469 15.9695 14.45 15.9695H4.17105C2.15197 15.9695 0.5 14.3239 0.5 12.3124V3.65715Z" fill="url(#paint8_linear_1621_9217)"/>
<path d="M18.1211 12.3428V8.80762C17.3257 4.66286 14.2664 1.31048 10.2589 0.0304794H4.17105C2.15197 0.0304794 0.5 1.67619 0.5 3.68763V12.3428C0.5 14.3543 2.15197 16 4.17105 16H14.45C16.4997 16 18.1211 14.3543 18.1211 12.3428Z" fill="url(#paint9_linear_1621_9217)"/>
<path d="M6.43549 12.4648H6.37431C5.94602 12.5867 5.48713 12.3124 5.36477 11.8857L3.7128 5.79048C3.59042 5.36381 3.86575 4.90667 4.29405 4.81524H4.35523C4.78352 4.69333 5.2424 4.96762 5.36477 5.39428L7.01674 11.4895C7.1391 11.9161 6.86378 12.3733 6.43549 12.4648Z" fill="url(#paint10_linear_1621_9217)"/>
<path d="M8.02845 10.9409C7.56957 10.9409 7.17188 10.5752 7.17188 10.0876V8.32001C7.17188 7.86286 7.53897 7.46667 8.02845 7.46667C8.48733 7.46667 8.88503 7.83238 8.88503 8.32001V10.0876C8.88503 10.5752 8.48733 10.9409 8.02845 10.9409Z" fill="url(#paint11_linear_1621_9217)"/>
<path d="M10.5675 10.9409C10.1087 10.9409 9.71094 10.5752 9.71094 10.0876V8.32001C9.71094 7.86286 10.078 7.46667 10.5675 7.46667C11.0264 7.46667 11.4241 7.83238 11.4241 8.32001V10.0876C11.3935 10.5752 11.0264 10.9409 10.5675 10.9409Z" fill="url(#paint12_linear_1621_9217)"/>
<path d="M12.5544 11.4285H12.4933C12.0649 11.3067 11.7896 10.88 11.912 10.4533L13.564 4.3581C13.6863 3.93143 14.1452 3.68762 14.5735 3.77905H14.6347C15.063 3.90095 15.3383 4.32762 15.2159 4.75428L13.564 10.8495C13.4416 11.3067 12.9827 11.5505 12.5544 11.4285Z" fill="url(#paint13_linear_1621_9217)"/>
</g>
</g>
<defs>
<linearGradient id="paint0_linear_1621_9217" x1="30.8298" y1="11.8634" x2="20.169" y2="9.13062" gradientUnits="userSpaceOnUse">
<stop stop-color="#fff"/>
<stop offset="1" stop-color="##fff"/>
</linearGradient>
<linearGradient id="paint1_linear_1621_9217" x1="30.9651" y1="12.9972" x2="94.3045" y2="5.26455" gradientUnits="userSpaceOnUse">
<stop stop-color="#fff"/>
<stop offset="1" stop-color="#fff"/>
</linearGradient>
<linearGradient id="paint2_linear_1621_9217" x1="31.2679" y1="15.4605" x2="94.6071" y2="7.7278" gradientUnits="userSpaceOnUse">
<stop stop-color="#fff"/>
<stop offset="1" stop-color="#fff"/>
</linearGradient>
<linearGradient id="paint3_linear_1621_9217" x1="31.4078" y1="16.5944" x2="94.7472" y2="8.86175" gradientUnits="userSpaceOnUse">
<stop stop-color="#fff"/>
<stop offset="1" stop-color="#fff"/>
</linearGradient>
<linearGradient id="paint4_linear_1621_9217" x1="30.9129" y1="12.5672" x2="94.2522" y2="4.83453" gradientUnits="userSpaceOnUse">
<stop stop-color="#fff"/>
<stop offset="1" stop-color="#fff"/>
</linearGradient>
<linearGradient id="paint5_linear_1621_9217" x1="30.1671" y1="6.45218" x2="93.5064" y2="-1.28051" gradientUnits="userSpaceOnUse">
<stop stop-color="#fff"/>
<stop offset="1" stop-color="#fff"/>
</linearGradient>
<linearGradient id="paint6_linear_1621_9217" x1="29.6707" y1="8.03641" x2="43.9751" y2="8.03641" gradientUnits="userSpaceOnUse">
<stop stop-color="#fff"/>
<stop offset="1" stop-color="#fff"/>
</linearGradient>
<linearGradient id="paint7_linear_1621_9217" x1="18.0829" y1="-3.93065" x2="26.788" y2="19.6879" gradientUnits="userSpaceOnUse">
<stop stop-color="#3D9A9D"/>
<stop offset="1" stop-color="#3A6DAB"/>
</linearGradient>
<linearGradient id="paint8_linear_1621_9217" x1="-0.759599" y1="2.164" x2="19.1803" y2="13.7702" gradientUnits="userSpaceOnUse">
<stop stop-color="#3D9A9D"/>
<stop offset="1" stop-color="#3C9FD0"/>
</linearGradient>
<linearGradient id="paint9_linear_1621_9217" x1="-0.621572" y1="13.7648" x2="16.9569" y2="3.53304" gradientUnits="userSpaceOnUse">
<stop stop-color="#3D9A9D" stop-opacity="0"/>
<stop offset="1" stop-color="#E6EFF9" stop-opacity="0.5"/>
</linearGradient>
<linearGradient id="paint10_linear_1621_9217" x1="5.37266" y1="3.11836" x2="5.37266" y2="16.472" gradientUnits="userSpaceOnUse">
<stop stop-color="#E6EFF9"/>
<stop offset="0.1227" stop-color="#E0ECF6"/>
<stop offset="0.2834" stop-color="#D0E4ED"/>
<stop offset="0.4651" stop-color="#B5D6DE"/>
<stop offset="0.6623" stop-color="#8FC3CA"/>
<stop offset="0.8697" stop-color="#5FABB0"/>
<stop offset="1" stop-color="#3D9A9D"/>
</linearGradient>
<linearGradient id="paint11_linear_1621_9217" x1="8.03585" y1="3.11835" x2="8.03585" y2="16.472" gradientUnits="userSpaceOnUse">
<stop stop-color="#E6EFF9"/>
<stop offset="0.1227" stop-color="#E0ECF6"/>
<stop offset="0.2834" stop-color="#D0E4ED"/>
<stop offset="0.4651" stop-color="#B5D6DE"/>
<stop offset="0.6623" stop-color="#8FC3CA"/>
<stop offset="0.8697" stop-color="#5FABB0"/>
<stop offset="1" stop-color="#3D9A9D"/>
</linearGradient>
<linearGradient id="paint12_linear_1621_9217" x1="10.5524" y1="3.11835" x2="10.5524" y2="16.472" gradientUnits="userSpaceOnUse">
<stop stop-color="#E6EFF9"/>
<stop offset="0.1227" stop-color="#E0ECF6"/>
<stop offset="0.2834" stop-color="#D0E4ED"/>
<stop offset="0.4651" stop-color="#B5D6DE"/>
<stop offset="0.6623" stop-color="#8FC3CA"/>
<stop offset="0.8697" stop-color="#5FABB0"/>
<stop offset="1" stop-color="#3D9A9D"/>
</linearGradient>
<linearGradient id="paint13_linear_1621_9217" x1="13.5616" y1="3.11836" x2="13.5616" y2="16.472" gradientUnits="userSpaceOnUse">
<stop stop-color="#E6EFF9"/>
<stop offset="0.1227" stop-color="#E0ECF6"/>
<stop offset="0.2834" stop-color="#D0E4ED"/>
<stop offset="0.4651" stop-color="#B5D6DE"/>
<stop offset="0.6623" stop-color="#8FC3CA"/>
<stop offset="0.8697" stop-color="#5FABB0"/>
<stop offset="1" stop-color="#3D9A9D"/>
</linearGradient>
<clipPath id="clip0_1621_9217">
<rect width="93" height="16" fill="white" transform="translate(0.5)"/>
</clipPath>
</defs>
</svg>
